<svg width="33" height="27" viewBox="0 0 33 27" fill="none" xmlns="http://www.w3.org/2000/svg">
<path d="M1.57007 5.20473C1.57007 4.31451 1.92371 3.46075 2.55319 2.83126C3.18267 2.20178 4.03643 1.84814 4.92665 1.84814H28.4227C29.3129 1.84814 30.1667 2.20178 30.7962 2.83126C31.4257 3.46075 31.7793 4.31451 31.7793 5.20473V21.9876C31.7793 22.8779 31.4257 23.7316 30.7962 24.3611C30.1667 24.9906 29.3129 25.3442 28.4227 25.3442H4.92665C4.03643 25.3442 3.18267 24.9906 2.55319 24.3611C1.92371 23.7316 1.57007 22.8779 1.57007 21.9876V5.20473Z" stroke="#32445A" stroke-width="2" stroke-linecap="round" stroke-linejoin="round"/>
<path d="M1.57007 5.20459L16.6747 15.2743L31.7793 5.20459" stroke="#32445A" stroke-width="2" stroke-linecap="round" stroke-linejoin="round"/>
</svg>
