<svg width="29" height="29" viewBox="0 0 29 29" fill="none" xmlns="http://www.w3.org/2000/svg">
<path d="M27.8379 21.1338V25.1821C27.8394 25.558 27.7624 25.93 27.6119 26.2743C27.4613 26.6187 27.2405 26.9278 26.9635 27.1818C26.6866 27.4359 26.3597 27.6293 26.0036 27.7497C25.6476 27.8701 25.2704 27.9149 24.8961 27.881C20.7436 27.4298 16.7549 26.0109 13.2504 23.7382C9.98991 21.6664 7.22559 18.9021 5.15374 15.6416C2.87315 12.1212 1.4539 8.11304 1.01095 3.94192C0.977231 3.56875 1.02158 3.19265 1.14117 2.83757C1.26077 2.48248 1.45299 2.15618 1.7056 1.87946C1.95821 1.60273 2.26567 1.38163 2.60841 1.23024C2.95115 1.07885 3.32166 1.00048 3.69634 1.00013H7.74467C8.39957 0.993685 9.03446 1.22559 9.53101 1.65263C10.0276 2.07967 10.3519 2.67269 10.4436 3.32117C10.6144 4.61673 10.9313 5.88879 11.3882 7.11311C11.5697 7.59611 11.609 8.12103 11.5014 8.62567C11.3938 9.13032 11.1437 9.59353 10.7809 9.96043L9.06713 11.6742C10.9881 15.0526 13.7854 17.8499 17.1638 19.7709L18.8776 18.0571C19.2445 17.6943 19.7077 17.4442 20.2123 17.3366C20.717 17.229 21.2419 17.2683 21.7249 17.4498C22.9492 17.9067 24.2213 18.2236 25.5168 18.3945C26.1723 18.4869 26.771 18.8171 27.199 19.3222C27.6269 19.8273 27.8543 20.472 27.8379 21.1338Z" stroke="#32445A" stroke-width="2" stroke-linecap="round" stroke-linejoin="round"/>
</svg>
